<svg width="325" height="141" viewBox="0 0 325 141" fill="none" xmlns="http://www.w3.org/2000/svg">
<g filter="url(#filter0_d_6_5)">
<path d="M13.5444 78H12.5317L37.7643 18.927L38.6926 18.505L59.9589 78H52.7857L46.2033 59.4342H21.5614L13.5444 78ZM35.1482 28.0411L21.899 58.5903H45.9501L35.1482 28.0411ZM65.8919 35.805H71.7992V46.2694C72.7556 43.6814 74.5278 41.2341 77.1158 38.9274C79.7037 36.6208 82.6292 35.4674 85.8923 35.4674C97.3131 35.4674 103.023 42.1624 103.023 55.5523C103.023 70.7425 95.6534 78.3376 80.9133 78.3376C78.2691 78.3376 75.2311 77.7187 71.7992 76.481V99.0975H65.8919V35.805ZM85.8079 36.1426C82.3198 36.1426 79.1693 37.6616 76.3563 40.6996C73.5433 43.6814 72.0242 46.3819 71.7992 48.8011V75.7215C75.2311 77.0154 78.241 77.6624 80.8289 77.6624C91.6871 77.6624 97.1162 70.2642 97.1162 55.4679C97.1162 42.5843 93.3468 36.1426 85.8079 36.1426ZM110.642 35.805H116.549V46.2694C117.505 43.6814 119.278 41.2341 121.866 38.9274C124.453 36.6208 127.379 35.4674 130.642 35.4674C142.063 35.4674 147.773 42.1624 147.773 55.5523C147.773 70.7425 140.403 78.3376 125.663 78.3376C123.019 78.3376 119.981 77.7187 116.549 76.481V99.0975H110.642V35.805ZM130.558 36.1426C127.07 36.1426 123.919 37.6616 121.106 40.6996C118.293 43.6814 116.774 46.3819 116.549 48.8011V75.7215C119.981 77.0154 122.991 77.6624 125.579 77.6624C136.437 77.6624 141.866 70.2642 141.866 55.4679C141.866 42.5843 138.097 36.1426 130.558 36.1426ZM184.844 78.3376C174.323 78.3376 166.531 75.3558 161.468 69.3922C159.667 67.2543 158.204 64.4132 157.079 60.8688C155.954 57.3244 155.391 53.0206 155.391 47.9572C155.391 42.8938 156.207 38.3648 157.839 34.3704C159.527 30.3196 161.805 27.1972 164.674 25.0031C170.244 20.8961 176.967 18.8426 184.844 18.8426C187.094 18.8426 189.288 19.0395 191.426 19.4333C193.564 19.7709 195.167 20.1366 196.236 20.5304L197.755 21.1211L197.502 21.965C193.676 20.446 189.457 19.6865 184.844 19.6865C178.88 19.6865 173.901 21.6275 169.907 25.5094C166.868 28.3787 164.731 32.5982 163.493 38.1679C162.761 41.3185 162.396 45.1723 162.396 49.7293C162.396 54.2864 163.043 58.5059 164.337 62.3878C165.631 66.2135 167.094 69.0547 168.725 70.9112C170.413 72.7678 172.438 74.2587 174.801 75.3839C177.164 76.4528 179.049 77.0717 180.455 77.2405C181.862 77.4093 183.55 77.4937 185.519 77.4937C187.544 77.4937 189.823 77.2967 192.354 76.9029C194.886 76.5091 196.799 76.1434 198.093 75.8059L200.034 75.2151L200.287 76.059C196.011 77.578 190.863 78.3376 184.844 78.3376ZM224.984 78.3376C219.077 78.3376 214.267 76.6498 210.553 73.2742C206.84 69.8986 204.984 64.6945 204.984 57.662C204.984 50.6295 206.897 45.1723 210.722 41.2903C214.604 37.4084 219.499 35.4674 225.406 35.4674C231.37 35.4674 236.208 37.1552 239.921 40.5308C243.634 43.9064 245.491 49.1105 245.491 56.143C245.491 63.1755 243.55 68.6327 239.668 72.5146C235.842 76.3966 230.948 78.3376 224.984 78.3376ZM225.575 36.1426C221.299 36.1426 217.755 38.0554 214.942 41.8811C212.129 45.6505 210.722 50.9389 210.722 57.7464C210.722 64.4976 212.016 69.5047 214.604 72.7678C217.192 76.0309 220.624 77.6624 224.9 77.6624C229.176 77.6624 232.72 75.7777 235.533 72.0083C238.346 68.1826 239.752 62.8942 239.752 56.143C239.752 49.3355 238.458 44.3003 235.87 41.0372C233.283 37.7741 229.851 36.1426 225.575 36.1426ZM301.445 45.5098C301.445 42.078 300.995 39.6588 300.095 38.2523C299.194 36.8458 297.478 36.1426 294.947 36.1426C291.571 36.1426 288.561 37.5491 285.917 40.3621C283.329 43.1751 282.035 45.7068 282.035 47.9572V78H276.128V45.5098C276.128 42.078 275.678 39.6588 274.778 38.2523C273.877 36.8458 271.965 36.1426 269.039 36.1426C266.114 36.1426 263.329 37.4928 260.684 40.1933C258.096 42.8938 256.69 45.3973 256.465 47.704V78H250.558V35.805H256.465V45.3411C257.365 42.9219 259.025 40.6715 261.444 38.5899C263.863 36.5082 266.564 35.4674 269.545 35.4674C272.527 35.4674 274.89 35.7487 276.634 36.3113C278.434 36.8177 279.7 37.6334 280.432 38.7586C281.163 39.8838 281.613 40.8684 281.782 41.7123C281.951 42.5562 282.035 43.7377 282.035 45.2567C282.935 42.8375 284.567 40.6152 286.93 38.5899C289.293 36.5082 291.824 35.4674 294.525 35.4674C297.225 35.4674 299.391 35.6925 301.023 36.1426C302.654 36.5926 303.864 37.099 304.652 37.6616C305.496 38.2242 306.114 39.0399 306.508 40.1089C306.958 41.1778 307.211 42.0499 307.268 42.725C307.324 43.4001 307.352 44.3565 307.352 45.5942V72.0083C307.352 73.6398 307.662 74.9057 308.28 75.8059C308.956 76.6498 309.631 77.0998 310.306 77.1561L311.234 77.3249H313.85V78H308.702C306.396 78 304.624 77.4937 303.386 76.481C302.204 75.4683 301.585 74.4556 301.529 73.4429L301.445 72.0083V45.5098Z" fill="black"/>
</g>
<path d="M11.512 132H11.08L21.844 106.8L22.24 106.62L31.312 132H28.252L25.444 124.08H14.932L11.512 132ZM20.728 110.688L15.076 123.72H25.336L20.728 110.688ZM32.5647 123.648C32.5647 120.528 33.3207 118.116 34.8327 116.412C36.3447 114.708 38.6127 113.856 41.6367 113.856C43.8687 113.856 46.1367 114.252 48.4407 115.044V132.432C48.4167 138.144 45.9207 141 40.9527 141C38.2167 141 35.8767 140.112 33.9327 138.336L34.1847 138.12C36.2487 139.848 38.5047 140.712 40.9527 140.712C44.2647 140.712 45.9207 137.952 45.9207 132.432V128.868C45.4647 129.708 44.7087 130.452 43.6527 131.1C42.5967 131.748 41.3487 132.072 39.9087 132.072C35.0127 131.952 32.5647 129.144 32.5647 123.648ZM39.9447 131.784C41.5527 131.784 42.9327 131.352 44.0847 130.488C45.2367 129.624 45.8487 128.772 45.9207 127.932V115.224C44.1927 114.504 42.7287 114.144 41.5287 114.144C39.3927 114.144 37.7847 114.984 36.7047 116.664C35.6247 118.32 35.0847 120.648 35.0847 123.648C35.0847 129.072 36.7047 131.784 39.9447 131.784ZM53.5794 123.216C53.5794 126.192 54.0954 128.376 55.1274 129.768C56.1834 131.16 57.5634 131.856 59.2674 131.856C61.6674 131.856 63.8034 131.496 65.6754 130.776L65.7834 131.028C63.8634 131.772 61.6914 132.144 59.2674 132.144C56.8674 132.144 54.9114 131.424 53.3994 129.984C51.8874 128.544 51.1314 126.324 51.1314 123.324C51.1314 120.324 51.9234 117.996 53.5074 116.34C55.0914 114.684 57.1074 113.856 59.5554 113.856C61.5234 113.856 63.1794 114.444 64.5234 115.62C65.8674 116.796 66.5394 118.536 66.5394 120.84C66.5394 120.96 66.5394 121.08 66.5394 121.2H53.6874C53.6154 121.848 53.5794 122.52 53.5794 123.216ZM64.0914 120.912C64.0674 118.608 63.6234 116.904 62.7594 115.8C61.8954 114.696 60.7794 114.144 59.4114 114.144C58.0434 114.144 56.8194 114.744 55.7394 115.944C54.6834 117.144 54.0114 118.8 53.7234 120.912H64.0914ZM82.9464 132C81.9624 132 81.2064 131.784 80.6784 131.352C80.1744 130.92 79.9104 130.488 79.8864 130.056L79.8504 129.444V118.14C79.8504 116.244 79.3584 115.032 78.3744 114.504C77.8704 114.264 77.2464 114.144 76.5024 114.144C74.9664 114.144 73.5864 114.756 72.3624 115.98C71.1384 117.18 70.5264 118.26 70.5264 119.22V132H68.0064V114H70.5264V118.104C70.9344 117.072 71.6904 116.112 72.7944 115.224C73.8984 114.312 75.1104 113.856 76.4304 113.856C77.7504 113.856 78.8184 113.988 79.6344 114.252C80.4744 114.492 81.0864 114.84 81.4704 115.296C82.0704 116.04 82.3704 117 82.3704 118.176V129.444C82.3704 130.14 82.5024 130.68 82.7664 131.064C83.0544 131.424 83.3424 131.616 83.6304 131.64L84.0264 131.712H85.1424V132H82.9464ZM86.6041 123.648C86.6041 120.528 87.3601 118.116 88.8721 116.412C90.3841 114.708 92.6521 113.856 95.6761 113.856C97.0921 113.856 98.5201 114.216 99.9601 114.936V105.036H102.48V129.444C102.48 130.14 102.612 130.68 102.876 131.064C103.164 131.424 103.452 131.616 103.74 131.64L104.136 131.712H105.252V132H103.056C102.072 132 101.316 131.784 100.788 131.352C100.284 130.92 100.02 130.488 99.9961 130.056L99.9601 129.444V128.868C99.5041 129.708 98.7481 130.452 97.6921 131.1C96.6361 131.748 95.3881 132.072 93.9481 132.072C89.0521 131.952 86.6041 129.144 86.6041 123.648ZM93.9841 131.784C95.5921 131.784 96.9721 131.352 98.1241 130.488C99.2761 129.624 99.8881 128.772 99.9601 127.932V115.26C98.2561 114.516 96.7921 114.144 95.5681 114.144C93.4321 114.144 91.8241 114.984 90.7441 116.664C89.6641 118.32 89.1241 120.648 89.1241 123.648C89.1241 129.072 90.7441 131.784 93.9841 131.784ZM122.285 132C120.653 132 119.537 131.688 118.937 131.064C118.385 130.536 118.109 130.08 118.109 129.696V128.94C116.933 131.076 115.049 132.144 112.457 132.144C109.433 132.144 107.717 130.776 107.309 128.04C107.261 127.752 107.237 127.464 107.237 127.176C107.237 126.864 107.285 126.528 107.381 126.168C107.477 125.808 107.753 125.412 108.209 124.98C109.121 124.116 111.125 123.588 114.221 123.396C114.989 123.324 115.697 123.288 116.345 123.288C116.993 123.288 117.581 123.312 118.109 123.36V117.384C118.061 117.36 118.061 117.252 118.109 117.06C118.157 116.844 118.109 116.58 117.965 116.268C117.845 115.932 117.677 115.608 117.461 115.296C117.245 114.984 116.861 114.72 116.309 114.504C115.757 114.264 115.037 114.144 114.149 114.144C113.261 114.144 112.217 114.312 111.017 114.648C109.841 114.96 108.977 115.272 108.425 115.584L108.281 115.332C110.417 114.348 112.589 113.856 114.797 113.856C117.269 113.856 118.901 114.3 119.693 115.188C120.317 115.884 120.629 116.616 120.629 117.384V129.444C120.629 130.14 120.761 130.68 121.025 131.064C121.313 131.424 121.601 131.616 121.889 131.64L122.285 131.712H123.401V132H122.285ZM113.033 131.856C114.305 131.856 115.445 131.424 116.453 130.56C117.485 129.672 118.037 128.82 118.109 128.004V123.648C117.461 123.6 116.801 123.576 116.129 123.576C115.481 123.576 114.833 123.612 114.185 123.684C112.361 123.9 111.173 124.308 110.621 124.908C110.069 125.508 109.793 126.336 109.793 127.392C109.793 127.584 109.805 127.8 109.829 128.04C110.045 130.584 111.113 131.856 113.033 131.856Z" fill="black"/>
<defs>
<filter id="filter0_d_6_5" x="8.53168" y="18.5051" width="309.318" height="88.5925" filterUnits="userSpaceOnUse" color-interpolation-filters="sRGB">
<feFlood flood-opacity="0" result="BackgroundImageFix"/>
<feColorMatrix in="SourceAlpha" type="matrix" values="0 0 0 0 0 0 0 0 0 0 0 0 0 0 0 0 0 0 127 0" result="hardAlpha"/>
<feOffset dy="4"/>
<feGaussianBlur stdDeviation="2"/>
<feComposite in2="hardAlpha" operator="out"/>
<feColorMatrix type="matrix" values="0 0 0 0 0 0 0 0 0 0 0 0 0 0 0 0 0 0 0.87 0"/>
<feBlend mode="normal" in2="BackgroundImageFix" result="effect1_dropShadow_6_5"/>
<feBlend mode="normal" in="SourceGraphic" in2="effect1_dropShadow_6_5" result="shape"/>
</filter>
</defs>
</svg>
